<svg width="64" height="64" viewBox="0 0 64 64" fill="none" xmlns="http://www.w3.org/2000/svg">
<path d="M32 62C48.5685 62 62 48.5685 62 32C62 15.4315 48.5685 2 32 2C15.4315 2 2 15.4315 2 32C2 48.5685 15.4315 62 32 62Z" fill="url(#paint0_linear_1_2)"/>
<path opacity="0.6" d="M32 62C48.5685 62 62 48.5685 62 32C62 15.4315 48.5685 2 32 2C15.4315 2 2 15.4315 2 32C2 48.5685 15.4315 62 32 62Z" stroke="#0B1220" stroke-width="2"/>
<path d="M14.93 42V21.6364H28.413V25.1861H19.2354V30.0384H27.5181V33.5881H19.2354V42H14.93ZM44.8118 28.2188C44.6726 27.7348 44.477 27.3073 44.2251 26.9361C43.9732 26.5582 43.665 26.2401 43.3004 25.9815C42.9425 25.7164 42.5315 25.5142 42.0675 25.375C41.6101 25.2358 41.103 25.1662 40.5462 25.1662C39.5054 25.1662 38.5907 25.4247 37.8018 25.9418C37.0196 26.4588 36.4098 27.2112 35.9723 28.1989C35.5348 29.1799 35.3161 30.3797 35.3161 31.7983C35.3161 33.2169 35.5315 34.4233 35.9624 35.4176C36.3932 36.4119 37.0031 37.1709 37.7919 37.6946C38.5807 38.2116 39.5121 38.4702 40.5859 38.4702C41.5604 38.4702 42.3923 38.2978 43.0817 37.9531C43.7777 37.6018 44.308 37.108 44.6726 36.4716C45.0438 35.8352 45.2294 35.0829 45.2294 34.2145L46.1044 34.3438H40.8544V31.1023H49.3757V33.6676C49.3757 35.4574 48.9979 36.9953 48.2422 38.2812C47.4865 39.5606 46.4458 40.5483 45.12 41.2443C43.7943 41.9337 42.2763 42.2784 40.5661 42.2784C38.657 42.2784 36.9799 41.8575 35.5348 41.0156C34.0897 40.1671 32.9628 38.964 32.1541 37.4062C31.352 35.8419 30.951 33.9858 30.951 31.8381C30.951 30.1875 31.1896 28.7159 31.6669 27.4233C32.1508 26.1241 32.8269 25.0237 33.6953 24.1222C34.5637 23.2206 35.5746 22.5346 36.728 22.0639C37.8814 21.5933 39.1309 21.358 40.4766 21.358C41.63 21.358 42.7038 21.527 43.6982 21.8651C44.6925 22.1965 45.5741 22.6671 46.343 23.277C47.1186 23.8868 47.7517 24.6127 48.2422 25.4545C48.7327 26.2898 49.0476 27.2112 49.1868 28.2188H44.8118Z" fill="white"/>
<defs>
<linearGradient id="paint0_linear_1_2" x1="2" y1="2" x2="62" y2="62" gradientUnits="userSpaceOnUse">
<stop stop-color="#0F172A"/>
<stop offset="1" stop-color="#1E293B"/>
</linearGradient>
</defs>
</svg>
